<svg xmlns="http://www.w3.org/2000/svg" viewBox="0 0 60 60"><defs><style>.a{fill:#333;}.b{fill:#fde910;}</style></defs><rect class="a" width="60" height="60" rx="11"/><path class="b" d="M6.41,31a6.79,6.79,0,0,1,1.51-4.4,6.28,6.28,0,0,1,5.26-2.3c3.45.34,5.59,1.9,6.4,4.68a12.43,12.43,0,0,1,.29,2v8.21a1.7,1.7,0,0,1-1.08,1.65,1.72,1.72,0,0,1-.79.22A1.64,1.64,0,0,1,16.34,40a2,2,0,0,1-.14-.72V31c-.1-1.78-1.1-2.76-3-3a2.7,2.7,0,0,0-3,2.3,4,4,0,0,0-.07.65v8.21A1.7,1.7,0,0,1,9,40.89a1.12,1.12,0,0,1-.72.22A1.77,1.77,0,0,1,6.55,40a2,2,0,0,1-.14-.72Z"/><path class="b" d="M33.7,36.71a1.92,1.92,0,0,1,1.94-.35,1.86,1.86,0,0,1,1.08,1.58A1.59,1.59,0,0,1,36,39.67a5.94,5.94,0,0,1-2.52,1.22,18.14,18.14,0,0,1-3.6.15,6,6,0,0,1-3.53-1.23,8.57,8.57,0,0,1-3.38-7A2.1,2.1,0,0,1,23,32q.21-4.91,3.38-7a6.71,6.71,0,0,1,4-1.22,6,6,0,0,1,2.95.72q3.47,2.16,3.46,7.2v.72a2,2,0,0,1-.14.72,1.68,1.68,0,0,1-1.73,1.15H27a3.23,3.23,0,0,0,2.88,2.81h.65A7,7,0,0,0,33.7,36.71Zm-3.6-9h-.22a3.07,3.07,0,0,0-1.44.44A3.49,3.49,0,0,0,27,30.52h5.9v-.14A3,3,0,0,0,31.46,28a2.42,2.42,0,0,0-1.22-.29Z"/><path class="b" d="M41.61,17a2,2,0,0,1,2,1.94V29.52l6.12-5.84a1.91,1.91,0,0,1,2.16-.36,2.37,2.37,0,0,1,.57.43,1.79,1.79,0,0,1,.36,2.09,5.64,5.64,0,0,1-.43.65l-4.46,4.18L53.28,38a1.73,1.73,0,0,1,.07,2.16,2.37,2.37,0,0,1-.5.5,1.73,1.73,0,0,1-2.16.08,1.49,1.49,0,0,1-.51-.43l-5.11-7-1.51,1.44v4.39a1.83,1.83,0,0,1-.94,1.66,1.79,1.79,0,0,1-1.94,0,1.83,1.83,0,0,1-.94-1.66V18.93a1.77,1.77,0,0,1,1.08-1.73A1.56,1.56,0,0,1,41.61,17Z"/></svg>